<svg width="126" height="40" viewBox="0 0 126 40" fill="none" xmlns="http://www.w3.org/2000/svg">
<path d="M57.9999 15.483H54.7794L49 1H51.9338L56.3896 12.7254L60.8455 1H63.7793L57.9999 15.483Z" fill="white"/>
<path d="M68.9251 15.7435C67.3075 15.7435 65.9693 15.2369 64.9104 14.2236C63.8663 13.1958 63.3443 11.864 63.3443 10.2283C63.3443 8.69386 63.8516 7.39828 64.8663 6.34155C65.8957 5.27035 67.1898 4.73474 68.7486 4.73474C70.3222 4.73474 71.5869 5.27035 72.5427 6.34155C73.5133 7.41276 73.9986 8.78071 73.9986 10.4454V10.9883H65.7707C65.859 11.8134 66.2046 12.501 66.8075 13.0511C67.4104 13.6011 68.1972 13.8762 69.1678 13.8762C69.7119 13.8762 70.256 13.7748 70.8001 13.5722C71.3589 13.3695 71.8221 13.0872 72.1898 12.7254L73.2486 14.2236C72.1751 15.2369 70.7339 15.7435 68.9251 15.7435ZM71.7486 9.38146C71.7192 8.65767 71.4471 8.0135 70.9324 7.44895C70.4325 6.88439 69.7045 6.60211 68.7486 6.60211C67.8369 6.60211 67.1237 6.88439 66.609 7.44895C66.0943 7.99902 65.8075 8.64319 65.7487 9.38146H71.7486Z" fill="white"/>
<path d="M85.792 15.483H83.4759V8.92547C83.4759 7.4779 82.7626 6.75411 81.3362 6.75411C80.7774 6.75411 80.2553 6.89163 79.77 7.16667C79.2847 7.44171 78.895 7.77465 78.6009 8.16549V15.483H76.2848V4.99531H78.6009V6.4284C78.998 5.96518 79.5274 5.5671 80.1891 5.23416C80.8509 4.90121 81.5715 4.73474 82.3509 4.73474C83.4832 4.73474 84.3361 5.02426 84.9097 5.60329C85.4979 6.18232 85.792 7.01467 85.792 8.10035V15.483Z" fill="white"/>
<path d="M91.9989 15.7435C91.1019 15.7435 90.4181 15.5119 89.9475 15.0487C89.4916 14.5855 89.2637 13.9196 89.2637 13.0511V6.99296H87.499V4.99531H89.2637V2.12911H91.5798V4.99531H93.7415V6.99296H91.5798V12.4865C91.5798 12.8629 91.668 13.1669 91.8445 13.3985C92.021 13.6156 92.271 13.7242 92.5945 13.7242C93.0651 13.7242 93.4107 13.6011 93.6313 13.355L94.1827 15.0704C93.6974 15.5192 92.9695 15.7435 91.9989 15.7435Z" fill="white"/>
<path d="M105.352 15.483H103.036V14.0933C102.036 15.1935 100.778 15.7435 99.2636 15.7435C96.9842 15.7435 95.8445 14.6362 95.8445 12.4214V4.99531H98.1607V11.5962C98.1607 12.3635 98.3445 12.9135 98.7121 13.2465C99.0798 13.5649 99.6092 13.7242 100.3 13.7242C100.859 13.7242 101.381 13.5939 101.867 13.3333C102.352 13.0728 102.742 12.7471 103.036 12.3562V4.99531H105.352V15.483Z" fill="white"/>
<path d="M110.676 15.483H108.36V4.99531H110.676V6.53697C111.088 6.01585 111.603 5.58881 112.22 5.25587C112.838 4.92293 113.478 4.75646 114.14 4.75646V7.01467C113.934 6.97124 113.691 6.94953 113.412 6.94953C112.926 6.94953 112.404 7.09429 111.845 7.3838C111.301 7.65884 110.912 7.97731 110.676 8.3392V15.483Z" fill="white"/>
<path d="M120.927 15.7435C119.309 15.7435 117.971 15.2369 116.912 14.2236C115.868 13.1958 115.346 11.864 115.346 10.2283C115.346 8.69386 115.853 7.39828 116.868 6.34155C117.897 5.27035 119.191 4.73474 120.75 4.73474C122.324 4.73474 123.588 5.27035 124.544 6.34155C125.515 7.41276 126 8.78071 126 10.4454V10.9883H117.772C117.86 11.8134 118.206 12.501 118.809 13.0511C119.412 13.6011 120.199 13.8762 121.169 13.8762C121.713 13.8762 122.257 13.7748 122.802 13.5722C123.36 13.3695 123.824 13.0872 124.191 12.7254L125.25 14.2236C124.176 15.2369 122.735 15.7435 120.927 15.7435ZM123.75 9.38146C123.721 8.65767 123.449 8.0135 122.934 7.44895C122.434 6.88439 121.706 6.60211 120.75 6.60211C119.838 6.60211 119.125 6.88439 118.61 7.44895C118.096 7.99902 117.809 8.64319 117.75 9.38146H123.75Z" fill="white"/>
<path d="M57.4043 37.4572C55.2132 37.4572 53.4117 36.7551 52 35.3509C50.5882 33.9323 49.8823 32.1373 49.8823 29.966C49.8823 27.7946 50.5882 26.0068 52 24.6027C53.4117 23.1841 55.2132 22.4748 57.4043 22.4748C59.5955 22.4748 61.3969 23.1841 62.8087 24.6027C64.2204 26.0068 64.9263 27.7946 64.9263 29.966C64.9263 32.036 64.2719 33.7731 62.9631 35.1772L64.1763 36.5235L62.3896 38L61.1102 36.5886C60.0219 37.1676 58.7867 37.4572 57.4043 37.4572ZM57.4043 35.1989C58.1543 35.1989 58.8455 35.0542 59.4778 34.7647L57.669 32.7236L59.4558 31.2688L61.2646 33.3099C61.941 32.3979 62.2793 31.2833 62.2793 29.966C62.2793 28.446 61.8307 27.1939 60.9337 26.2095C60.0367 25.2252 58.8602 24.733 57.4043 24.733C55.9338 24.733 54.7499 25.2252 53.8529 26.2095C52.9705 27.1939 52.5294 28.446 52.5294 29.966C52.5294 31.4859 52.9705 32.7381 53.8529 33.7224C54.7499 34.7068 55.9338 35.1989 57.4043 35.1989Z" fill="white"/>
<path d="M76.8522 37.1966H74.5361V35.8069C73.5361 36.9071 72.2788 37.4572 70.7641 37.4572C68.4847 37.4572 67.345 36.3498 67.345 34.135V26.7089H69.6611V33.3099C69.6611 34.0771 69.845 34.6272 70.2126 34.9601C70.5803 35.2786 71.1097 35.4378 71.8008 35.4378C72.3596 35.4378 72.8817 35.3075 73.367 35.0469C73.8523 34.7864 74.242 34.4607 74.5361 34.0698V26.7089H76.8522V37.1966Z" fill="white"/>
<path d="M84.7797 37.4572C83.1621 37.4572 81.8239 36.9505 80.7651 35.9372C79.721 34.9094 79.1989 33.5777 79.1989 31.9419C79.1989 30.4075 79.7063 29.1119 80.7209 28.0552C81.7503 26.984 83.0444 26.4484 84.6033 26.4484C86.1768 26.4484 87.4415 26.984 88.3973 28.0552C89.3679 29.1264 89.8532 30.4943 89.8532 32.159V32.7019H81.6253C81.7136 33.527 82.0592 34.2146 82.6621 34.7647C83.265 35.3148 84.0518 35.5898 85.0224 35.5898C85.5665 35.5898 86.1106 35.4885 86.6547 35.2858C87.2135 35.0831 87.6768 34.8009 88.0444 34.439L89.1032 35.9372C88.0297 36.9505 86.5885 37.4572 84.7797 37.4572ZM87.6032 31.0951C87.5738 30.3713 87.3018 29.7271 86.7871 29.1626C86.2871 28.598 85.5591 28.3157 84.6033 28.3157C83.6915 28.3157 82.9783 28.598 82.4636 29.1626C81.9489 29.7126 81.6621 30.3568 81.6033 31.0951H87.6032Z" fill="white"/>
<path d="M95.779 37.4572C93.8673 37.4572 92.3452 36.9143 91.2129 35.8286L92.2717 34.1784C92.6688 34.5837 93.2055 34.9311 93.882 35.2207C94.5585 35.5102 95.2276 35.6549 95.8893 35.6549C96.5658 35.6549 97.0805 35.5246 97.4334 35.2641C97.8011 35.0035 97.9849 34.6633 97.9849 34.2435C97.9849 33.8672 97.7643 33.5777 97.3231 33.375C96.882 33.1579 96.3452 32.9914 95.7129 32.8756C95.0805 32.7453 94.4482 32.5933 93.8158 32.4196C93.1835 32.2314 92.6467 31.9057 92.2055 31.4425C91.7644 30.9793 91.5438 30.3785 91.5438 29.6403C91.5438 28.7428 91.9188 27.99 92.6688 27.382C93.4188 26.7596 94.4408 26.4484 95.7349 26.4484C97.3673 26.4484 98.7496 26.9405 99.8819 27.9249L98.9114 29.5317C98.5731 29.1553 98.1246 28.8513 97.5658 28.6197C97.007 28.3881 96.404 28.2723 95.757 28.2723C95.154 28.2723 94.6688 28.3953 94.3011 28.6414C93.9482 28.873 93.7717 29.177 93.7717 29.5534C93.7717 29.8429 93.9261 30.0818 94.2349 30.27C94.5585 30.4437 94.9555 30.5739 95.4261 30.6608C95.9114 30.7477 96.4334 30.8707 96.9923 31.0299C97.5511 31.1747 98.0658 31.3484 98.5364 31.5511C99.0217 31.7537 99.4187 32.0867 99.7275 32.5499C100.051 32.9986 100.213 33.5487 100.213 34.2001C100.213 35.1555 99.8231 35.9372 99.0437 36.5452C98.2643 37.1532 97.1761 37.4572 95.779 37.4572Z" fill="white"/>
<path d="M105.742 37.4572C104.845 37.4572 104.162 37.2255 103.691 36.7623C103.235 36.2991 103.007 35.6332 103.007 34.7647V28.7066H101.243V26.7089H103.007V23.8427H105.323V26.7089H107.485V28.7066H105.323V34.2001C105.323 34.5765 105.412 34.8805 105.588 35.1121C105.765 35.3292 106.015 35.4378 106.338 35.4378C106.809 35.4378 107.154 35.3148 107.375 35.0687L107.926 36.784C107.441 37.2328 106.713 37.4572 105.742 37.4572Z" fill="white"/>
<path fill-rule="evenodd" clip-rule="evenodd" d="M37.1662 2.00899H2.00899V37.1662H37.1662V2.00899ZM0 0V39.1752H39.1752V0H0Z" fill="white"/>
<path fill-rule="evenodd" clip-rule="evenodd" d="M21.9803 31.695C23.2818 32.8341 24.8945 33.4037 26.8184 33.4037C28.1529 33.4037 29.3454 33.1198 30.396 32.5519L31.6311 33.9361L33.356 32.488L32.1848 31.1677C33.4483 29.7906 34.0801 28.087 34.0801 26.0568C34.0801 23.9273 33.3986 22.174 32.0357 20.7969C30.7293 19.4633 29.0773 18.7688 27.0795 18.7136L26.1982 20.9573C26.3987 20.9355 26.6054 20.9247 26.8184 20.9247C28.2239 20.9247 29.3596 21.4074 30.2256 22.3728C31.0916 23.3381 31.5247 24.5662 31.5247 26.0568C31.5247 27.3488 31.1981 28.4419 30.5451 29.3363L28.7989 27.3346L27.0739 28.7613L28.8202 30.7631C28.2097 31.047 27.5424 31.189 26.8184 31.189C25.3987 31.189 24.2559 30.7063 23.3899 29.7409C23.2344 29.5647 23.093 29.3797 22.9659 29.1859L21.9803 31.695ZM24.0784 19.1735C23.1474 19.5201 22.3217 20.0613 21.6011 20.7969C20.2382 22.174 19.5567 23.9273 19.5567 26.0568C19.5567 27.2981 19.7882 28.4139 20.2513 29.4044L24.0784 19.1735Z" fill="white"/>
<path d="M18.9556 32.7464H15.8465L10.2671 18.5425H13.0994L17.401 30.0419L21.7027 18.5425H24.5349L18.9556 32.7464Z" fill="white"/>
</svg>
