<svg width="161" height="50" viewBox="0 0 161 50" fill="none" xmlns="http://www.w3.org/2000/svg">
<path d="M73.9522 19.7408H69.8459L62.477 1.27441H66.2177L71.8991 16.2247L77.5804 1.27441H81.3211L73.9522 19.7408Z" fill="#292A34"/>
<path d="M87.8823 20.073C85.8198 20.073 84.1135 19.427 82.7635 18.135C81.4322 16.8246 80.7665 15.1265 80.7665 13.0408C80.7665 11.0844 81.4134 9.43248 82.7072 8.0851C84.0197 6.71927 85.6698 6.03636 87.6573 6.03636C89.6636 6.03636 91.2761 6.71927 92.4949 8.0851C93.7324 9.45093 94.3512 11.1951 94.3512 13.3177V14.0098H83.8603C83.9729 15.0619 84.4135 15.9386 85.1823 16.64C85.951 17.3414 86.9542 17.6921 88.1917 17.6921C88.8855 17.6921 89.5792 17.5629 90.273 17.3045C90.9855 17.0461 91.5761 16.6861 92.0449 16.2247L93.3949 18.135C92.0261 19.427 90.1886 20.073 87.8823 20.073ZM91.4824 11.9611C91.4449 11.0382 91.098 10.2169 90.4417 9.49708C89.8042 8.77725 88.8761 8.41733 87.6573 8.41733C86.4948 8.41733 85.5854 8.77725 84.9291 9.49708C84.2729 10.1984 83.9072 11.0198 83.8322 11.9611H91.4824Z" fill="#292A34"/>
<path d="M109.388 19.7408H106.435V11.3797C106.435 9.53399 105.526 8.61113 103.707 8.61113C102.994 8.61113 102.329 8.78648 101.71 9.13716C101.091 9.48785 100.594 9.91236 100.219 10.4107V19.7408H97.2661V6.36859H100.219V8.19585C100.726 7.60522 101.401 7.09765 102.244 6.67313C103.088 6.24862 104.007 6.03636 105.001 6.03636C106.444 6.03636 107.532 6.4055 108.263 7.14379C109.013 7.88207 109.388 8.94336 109.388 10.3276V19.7408Z" fill="#292A34"/>
<path d="M117.302 20.073C116.159 20.073 115.287 19.7777 114.687 19.1871C114.105 18.5965 113.815 17.7474 113.815 16.64V8.91568H111.565V6.36859H113.815V2.71407H116.768V6.36859H119.524V8.91568H116.768V15.9202C116.768 16.4001 116.88 16.7877 117.105 17.083C117.33 17.3598 117.649 17.4983 118.062 17.4983C118.662 17.4983 119.102 17.3414 119.384 17.0276L120.087 19.2148C119.468 19.7869 118.54 20.073 117.302 20.073Z" fill="#292A34"/>
<path d="M134.328 19.7408H131.375V17.9689C130.1 19.3717 128.496 20.073 126.565 20.073C123.659 20.073 122.206 18.6611 122.206 15.8371V6.36859H125.159V14.7851C125.159 15.7633 125.393 16.4647 125.862 16.8892C126.331 17.2952 127.006 17.4983 127.887 17.4983C128.6 17.4983 129.265 17.3321 129.884 16.9999C130.503 16.6677 131 16.2524 131.375 15.7541V6.36859H134.328V19.7408Z" fill="#292A34"/>
<path d="M141.117 19.7408H138.164V6.36859H141.117V8.33428C141.642 7.66982 142.298 7.12533 143.086 6.70082C143.873 6.2763 144.689 6.06405 145.533 6.06405V8.94336C145.27 8.88799 144.961 8.8603 144.604 8.8603C143.986 8.8603 143.32 9.04488 142.607 9.41402C141.914 9.7647 141.417 10.1708 141.117 10.6322V19.7408Z" fill="#292A34"/>
<path d="M154.186 20.073C152.124 20.073 150.417 19.427 149.067 18.135C147.736 16.8246 147.07 15.1265 147.07 13.0408C147.07 11.0844 147.717 9.43248 149.011 8.0851C150.324 6.71927 151.974 6.03636 153.961 6.03636C155.967 6.03636 157.58 6.71927 158.799 8.0851C160.036 9.45093 160.655 11.1951 160.655 13.3177V14.0098H150.164C150.277 15.0619 150.717 15.9386 151.486 16.64C152.255 17.3414 153.258 17.6921 154.496 17.6921C155.189 17.6921 155.883 17.5629 156.577 17.3045C157.289 17.0461 157.88 16.6861 158.349 16.2247L159.699 18.135C158.33 19.427 156.492 20.073 154.186 20.073ZM157.786 11.9611C157.749 11.0382 157.402 10.2169 156.746 9.49708C156.108 8.77725 155.18 8.41733 153.961 8.41733C152.799 8.41733 151.889 8.77725 151.233 9.49708C150.577 10.1984 150.211 11.0198 150.136 11.9611H157.786Z" fill="#292A34"/>
<path d="M73.1928 47.7588C70.399 47.7588 68.1021 46.8636 66.3021 45.0732C64.502 43.2644 63.602 40.9757 63.602 38.2072C63.602 35.4386 64.502 33.1591 66.3021 31.3688C68.1021 29.56 70.399 28.6556 73.1928 28.6556C75.9866 28.6556 78.2836 29.56 80.0836 31.3688C81.8836 33.1591 82.7837 35.4386 82.7837 38.2072C82.7837 40.8465 81.9493 43.0614 80.2805 44.8517L81.8274 46.5683L79.5492 48.4509L77.9179 46.6513C76.5304 47.3896 74.9554 47.7588 73.1928 47.7588ZM73.1928 44.8794C74.1491 44.8794 75.0304 44.6949 75.8366 44.3257L73.5303 41.7233L75.8085 39.8683L78.1148 42.4708C78.9773 41.308 79.4086 39.8868 79.4086 38.2072C79.4086 36.2692 78.8367 34.6726 77.6929 33.4175C76.5492 32.1625 75.0491 31.5349 73.1928 31.5349C71.3178 31.5349 69.8084 32.1625 68.6646 33.4175C67.5396 34.6726 66.9771 36.2692 66.9771 38.2072C66.9771 40.1452 67.5396 41.7417 68.6646 42.9968C69.8084 44.2519 71.3178 44.8794 73.1928 44.8794Z" fill="#292A34"/>
<path d="M97.9897 47.4265H95.0365V45.6546C93.7615 47.0574 92.1583 47.7588 90.2271 47.7588C87.3207 47.7588 85.8676 46.3468 85.8676 43.5228V34.0543H88.8208V42.4708C88.8208 43.449 89.0552 44.1504 89.5239 44.5749C89.9927 44.9809 90.6677 45.184 91.549 45.184C92.2615 45.184 92.9271 45.0179 93.5459 44.6856C94.1646 44.3534 94.6615 43.9381 95.0365 43.4398V34.0543H97.9897V47.4265Z" fill="#292A34"/>
<path d="M108.098 47.7588C106.035 47.7588 104.329 47.1128 102.979 45.8208C101.647 44.5103 100.982 42.8122 100.982 40.7266C100.982 38.7701 101.629 37.1182 102.922 35.7708C104.235 34.405 105.885 33.7221 107.873 33.7221C109.879 33.7221 111.491 34.405 112.71 35.7708C113.948 37.1367 114.566 38.8809 114.566 41.0034V41.6956H104.076C104.188 42.7476 104.629 43.6244 105.398 44.3257C106.166 45.0271 107.169 45.3778 108.407 45.3778C109.101 45.3778 109.794 45.2486 110.488 44.9902C111.201 44.7318 111.791 44.3719 112.26 43.9104L113.61 45.8208C112.241 47.1128 110.404 47.7588 108.098 47.7588ZM111.698 39.6468C111.66 38.724 111.313 37.9026 110.657 37.1828C110.019 36.463 109.091 36.1031 107.873 36.1031C106.71 36.1031 105.801 36.463 105.144 37.1828C104.488 37.8842 104.122 38.7055 104.047 39.6468H111.698Z" fill="#292A34"/>
<path d="M122.122 47.7588C119.685 47.7588 117.744 47.0666 116.3 45.6823L117.65 43.5782C118.156 44.095 118.841 44.538 119.703 44.9071C120.566 45.2763 121.419 45.4608 122.263 45.4608C123.125 45.4608 123.782 45.2947 124.232 44.9625C124.7 44.6303 124.935 44.1965 124.935 43.6613C124.935 43.1814 124.653 42.8122 124.091 42.5538C123.528 42.277 122.844 42.0647 122.038 41.9171C121.231 41.7509 120.425 41.5572 119.619 41.3357C118.813 41.0957 118.128 40.6804 117.566 40.0898C117.003 39.4992 116.722 38.7332 116.722 37.7919C116.722 36.6475 117.2 35.6878 118.156 34.9126C119.113 34.1189 120.416 33.7221 122.066 33.7221C124.147 33.7221 125.91 34.3496 127.354 35.6047L126.116 37.6535C125.685 37.1736 125.113 36.786 124.4 36.4907C123.688 36.1953 122.919 36.0477 122.094 36.0477C121.325 36.0477 120.706 36.2046 120.238 36.5183C119.788 36.8137 119.563 37.2013 119.563 37.6811C119.563 38.0503 119.76 38.3548 120.153 38.5948C120.566 38.8163 121.072 38.9824 121.672 39.0931C122.291 39.2039 122.957 39.3607 123.669 39.5638C124.382 39.7483 125.038 39.9698 125.638 40.2282C126.257 40.4866 126.763 40.9111 127.157 41.5018C127.569 42.074 127.775 42.7753 127.775 43.6059C127.775 44.8241 127.278 45.8208 126.285 46.596C125.291 47.3712 123.903 47.7588 122.122 47.7588Z" fill="#292A34"/>
<path d="M134.826 47.7588C133.682 47.7588 132.81 47.4634 132.21 46.8728C131.629 46.2822 131.338 45.4332 131.338 44.3257V36.6014H129.088V34.0543H131.338V30.3998H134.292V34.0543H137.048V36.6014H134.292V43.6059C134.292 44.0858 134.404 44.4734 134.629 44.7687C134.854 45.0456 135.173 45.184 135.585 45.184C136.185 45.184 136.626 45.0271 136.907 44.7133L137.61 46.9005C136.992 47.4727 136.063 47.7588 134.826 47.7588Z" fill="#292A34"/>
<path fill-rule="evenodd" clip-rule="evenodd" d="M47.3885 2.56154H2.56154V47.3885H47.3885V2.56154ZM0 0V49.95H49.95V0H0Z" fill="#292A34"/>
<path fill-rule="evenodd" clip-rule="evenodd" d="M28.0259 40.4123C29.6854 41.8647 31.7416 42.5909 34.1945 42.5909C35.8961 42.5909 37.4166 42.2288 38.7561 41.5048L40.331 43.2697L42.5303 41.4233L41.0369 39.7399C42.648 37.984 43.4535 35.8118 43.4535 33.2233C43.4535 30.5081 42.5846 28.2726 40.8469 26.5167C39.1812 24.8163 37.0748 23.9309 34.5276 23.8604L33.4039 26.7211C33.6595 26.6935 33.9231 26.6796 34.1945 26.6796C35.9866 26.6796 37.4347 27.2951 38.5389 28.526C39.6431 29.7569 40.1952 31.3227 40.1952 33.2233C40.1952 34.8706 39.7789 36.2644 38.9462 37.4048L36.7197 34.8525L34.5204 36.6717L36.7469 39.224C35.9685 39.586 35.1177 39.767 34.1945 39.767C32.3844 39.767 30.9272 39.1516 29.823 37.9207C29.6248 37.696 29.4446 37.4602 29.2826 37.2132L28.0259 40.4123ZM30.7011 24.4467C29.514 24.8887 28.4611 25.5787 27.5422 26.5167C25.8045 28.2726 24.9356 30.5081 24.9356 33.2233C24.9356 34.806 25.2308 36.2289 25.8213 37.4918L30.7011 24.4467Z" fill="#292A34"/>
<path d="M24.1691 41.7527H20.2049L13.091 23.6421H16.7022L22.187 38.3043L27.6718 23.6421H31.283L24.1691 41.7527Z" fill="#292A34"/>
</svg>
